<svg width="310" height="312" viewBox="0 0 310 312" fill="none" xmlns="http://www.w3.org/2000/svg">
<g clip-path="url(#clip0_1_291)">
<path d="M103.667 54.17C103.667 81.7842 81.2807 104.17 53.6665 104.17H49.9998C22.3856 104.17 -0.000160217 81.7842 -0.000160217 54.17L-0.000160217 0.5L103.667 0.5L103.667 54.17Z" fill="#E0533D"/>
<path d="M0 157.84C0 185.454 22.3858 207.84 50 207.84H103.67V104.17H0V157.84Z" fill="#377CC8"/>
<path d="M53.6699 311.51C81.2841 311.51 103.67 289.124 103.67 261.51V207.84H50C22.3857 207.84 -7.62939e-05 230.226 -7.62939e-05 257.84V311.51H53.6699Z" fill="#E78C9D"/>
<rect x="103.67" y="0.5" width="103.67" height="103.67" rx="51.835" fill="#9DA7D0"/>
<rect x="103.67" y="104.17" width="103.67" height="103.67" fill="#EED868"/>
<path d="M103.67 257.84C103.67 230.226 126.056 207.84 153.67 207.84H157.337C184.951 207.84 207.337 230.226 207.337 257.84V311.51H103.67V257.84Z" fill="#469B88"/>
<path d="M207.34 0.5H261.01C288.624 0.5 311.01 22.8858 311.01 50.5V104.17H207.34V0.5Z" fill="#469B88"/>
<path d="M207.34 207.84H261.01C288.624 207.84 311.01 185.454 311.01 157.84V104.17H207.34V207.84Z" fill="#EED868"/>
<rect x="207.34" y="207.84" width="103.67" height="103.67" rx="51.835" fill="#377CC8"/>
</g>
<defs>
<clipPath id="clip0_1_291">
<rect y="0.5" width="310" height="311" rx="1" fill="white"/>
</clipPath>
</defs>
</svg>
